<?xml version="1.0" standalone="no"?>
<!DOCTYPE svg PUBLIC "-//W3C//DTD SVG 20010904//EN"
 "http://www.w3.org/TR/2001/REC-SVG-20010904/DTD/svg10.dtd">
<svg version="1.0" xmlns="http://www.w3.org/2000/svg"
 width="53.87" height="43.61" viewBox="0 0 1200.000000 1200.000000"
 preserveAspectRatio="xMidYMid meet">
<metadata>
Created by potrace 1.16, written by Peter Selinger 2001-2019
</metadata>
<g transform="translate(0.000000,1200.000000) scale(0.100000,-0.100000)"
fill="#000000" stroke="none">
<path d="M5765 8685 c-587 -92 -1069 -497 -1258 -1055 -295 -872 219 -1812
1113 -2034 574 -143 1175 46 1567 493 423 483 511 1182 218 1748 -69 133 -128
221 -218 324 -253 289 -576 466 -962 525 -110 17 -351 16 -460 -1z m416 -852
c44 -19 44 -19 89 1 71 33 188 29 263 -7 118 -58 207 -185 243 -344 35 -158
-7 -585 -71 -728 -25 -55 -75 -108 -118 -124 -115 -44 -263 31 -298 150 -18
58 -8 71 52 67 49 -3 52 -5 63 -37 6 -19 23 -43 39 -55 24 -18 29 -18 42 -5
12 12 15 41 16 125 0 105 -1 110 -26 131 -25 22 -111 53 -146 53 -12 0 -28
-29 -58 -99 -22 -55 -41 -109 -41 -119 0 -21 -57 -344 -66 -374 -5 -16 -22
-18 -170 -18 l-164 0 0 165 0 165 -53 0 -54 0 -6 -162 c-4 -89 -10 -165 -15
-170 -4 -4 -77 -4 -162 0 l-154 7 -32 187 c-22 126 -44 217 -68 280 -42 114
-76 273 -76 361 0 193 95 368 244 452 91 51 159 65 313 65 106 0 139 3 158 16
73 48 172 54 256 17z"/>
<path d="M5988 7715 c-21 -14 -50 -47 -65 -73 -25 -42 -28 -56 -27 -132 1
-101 24 -171 82 -257 61 -90 66 -92 90 -36 11 27 26 67 33 91 l12 42 59 0 60
0 -7 -42 c-4 -24 -18 -69 -31 -102 -24 -58 -109 -212 -123 -220 -12 -8 -147
130 -187 191 -103 155 -140 349 -89 470 l15 35 -108 -3 c-92 -4 -115 -8 -163
-32 -218 -106 -265 -352 -134 -701 23 -61 45 -149 59 -232 13 -74 25 -136 27
-138 2 -2 28 -6 57 -10 l52 -7 0 171 0 170 175 0 175 0 0 -165 0 -165 59 0 59
0 22 148 c26 174 37 213 101 352 l48 105 73 0 c122 0 234 -49 280 -123 14 -22
24 -60 28 -101 l6 -66 13 84 c32 212 40 407 20 503 -15 70 -59 155 -101 195
-42 40 -112 72 -159 73 -43 0 -111 -22 -146 -48 -24 -18 -26 -17 -90 15 -80
40 -125 42 -175 8z"/>
</g>
</svg>
