<?xml version="1.0" standalone="no"?>
<!DOCTYPE svg PUBLIC "-//W3C//DTD SVG 20010904//EN"
 "http://www.w3.org/TR/2001/REC-SVG-20010904/DTD/svg10.dtd">
<svg version="1.0" xmlns="http://www.w3.org/2000/svg"
 width="200.000000pt" height="200.000000pt" viewBox="0 0 200.000000 200.000000"
 preserveAspectRatio="xMidYMid meet">
<metadata>
Created by potrace 1.16, written by Peter Selinger 2001-2019
</metadata>
<g transform="translate(0.000000,200.000000) scale(0.100000,-0.100000)"
fill="#000000" stroke="none">
<path d="M960 1482 l0 -72 -100 0 -100 0 0 -168 0 -168 70 -69 70 -69 0 172 0
172 100 0 100 0 0 -103 0 -103 70 -69 70 -69 0 169 0 170 -140 140 -140 140 0
-73z"/>
<path d="M1411 832 c-64 -32 -58 -90 13 -127 48 -25 44 -40 -11 -38 -41 1 -43
0 -43 -27 0 -23 5 -28 33 -33 71 -11 127 20 127 73 0 31 -35 66 -77 76 -12 4
-23 13 -23 21 0 13 9 15 45 11 44 -5 45 -5 45 22 0 23 -5 29 -31 34 -42 8 -39
8 -78 -12z"/>
<path d="M470 725 l0 -115 30 0 c29 0 29 1 32 63 l3 62 34 -62 c31 -58 36 -63
67 -63 l34 0 0 115 0 115 -30 0 c-29 0 -29 -1 -32 -61 l-3 -62 -34 62 c-32 56
-38 61 -68 61 l-33 0 0 -115z"/>
<path d="M760 833 c0 -5 -16 -56 -34 -115 l-34 -108 34 0 c27 0 34 4 34 20 0
17 7 20 44 20 35 0 45 -4 49 -20 4 -15 14 -20 37 -20 22 0 31 4 27 13 -2 6
-18 58 -36 115 l-32 102 -44 0 c-25 0 -45 -3 -45 -7z"/>
<path d="M912 828 c3 -7 20 -59 39 -115 l33 -103 38 0 37 0 35 110 c20 60 36
112 36 115 0 3 -13 5 -30 5 -28 0 -30 -4 -54 -77 -14 -43 -25 -76 -26 -73 -1
3 -11 37 -23 75 -22 67 -24 70 -56 73 -25 3 -32 0 -29 -10z"/>
<path d="M1165 753 c-14 -49 -30 -100 -35 -115 -8 -26 -7 -28 21 -28 22 0 32
6 36 20 4 16 14 20 48 20 34 0 44 -4 48 -20 4 -15 14 -20 37 -20 23 0 31 4 27
13 -3 8 -19 60 -37 115 l-31 102 -44 0 -44 0 -26 -87z"/>
</g>
</svg>
